<svg width="64" height="64" viewBox="0 0 64 64" fill="none" xmlns="http://www.w3.org/2000/svg">
<path d="M56 24H8V16H56V24ZM56 53.3333V34.6667H8V53.3333C8 54.0406 8.28095 54.7189 8.78105 55.219C9.28115 55.7191 9.95942 56 10.6667 56H53.3333C54.0406 56 54.7189 55.7191 55.219 55.219C55.7191 54.7189 56 54.0406 56 53.3333Z" fill="#E5E5E5"/>
<path d="M40 24V56M53.3333 56H10.6667C9.95942 56 9.28115 55.7191 8.78105 55.219C8.28095 54.7189 8 54.0406 8 53.3333V10.6667C8 9.95942 8.28095 9.28115 8.78105 8.78105C9.28115 8.28095 9.95942 8 10.6667 8H53.3333C54.0406 8 54.7189 8.28095 55.219 8.78105C55.7191 9.28115 56 9.95942 56 10.6667V53.3333C56 54.0406 55.7191 54.7189 55.219 55.219C54.7189 55.7191 54.0406 56 53.3333 56ZM8 24H56H8Z" stroke="#14213D" stroke-width="4" stroke-linecap="round" stroke-linejoin="round"/>
</svg>
